<?xml version="1.0" encoding="UTF-8" standalone="no"?>
<svg
   width="882"
   height="882"
   version="1.1"
   id="svg10"
   sodipodi:docname="illustration-editor-desktop.svg"
   inkscape:version="1.3.2 (091e20e, 2023-11-25, custom)"
   xmlns:inkscape="http://www.inkscape.org/namespaces/inkscape"
   xmlns:sodipodi="http://sodipodi.sourceforge.net/DTD/sodipodi-0.dtd"
   xmlns:xlink="http://www.w3.org/1999/xlink"
   xmlns="http://www.w3.org/2000/svg"
   xmlns:svg="http://www.w3.org/2000/svg">
  <sodipodi:namedview
     id="namedview10"
     pagecolor="#ffffff"
     bordercolor="#000000"
     borderopacity="0.25"
     inkscape:showpageshadow="2"
     inkscape:pageopacity="0.0"
     inkscape:pagecheckerboard="0"
     inkscape:deskcolor="#d1d1d1"
     inkscape:zoom="0.92176871"
     inkscape:cx="557.62362"
     inkscape:cy="448.5941"
     inkscape:window-width="1920"
     inkscape:window-height="1009"
     inkscape:window-x="-8"
     inkscape:window-y="-8"
     inkscape:window-maximized="1"
     inkscape:current-layer="svg10" />
  <defs
     id="defs4">
    <linearGradient
       x1="0"
       y1="145.97881"
       x2="523.57806"
       y2="377.5993"
       id="c"
       gradientTransform="scale(1.2261782,0.81554217)"
       gradientUnits="userSpaceOnUse">
      <stop
         stop-color="#FF8F71"
         offset="0%"
         id="stop1" />
      <stop
         stop-color="#FF3E55"
         offset="100%"
         id="stop2" />
    </linearGradient>
    <linearGradient
       x1="132.69899"
       y1="298.1777"
       x2="384.50342"
       y2="339.85135"
       id="e"
       gradientTransform="scale(1.5448498,0.64731213)"
       gradientUnits="userSpaceOnUse">
      <stop
         stop-color="#FF8F71"
         offset="0%"
         id="stop3" />
      <stop
         stop-color="#FF3E55"
         offset="100%"
         id="stop4" />
    </linearGradient>
    <filter
       x="-0.074766355"
       y="-0.11241218"
       width="1.1495327"
       height="1.2716628"
       filterUnits="objectBoundingBox"
       id="b">
      <feOffset
         dy="20"
         in="SourceAlpha"
         result="shadowOffsetOuter1"
         id="feOffset4" />
      <feGaussianBlur
         stdDeviation="20"
         in="shadowOffsetOuter1"
         result="shadowBlurOuter1"
         id="feGaussianBlur4" />
      <feColorMatrix
         values="0 0 0 0 0.421821759 0 0 0 0 0.554338424 0 0 0 0 0.893710371 0 0 0 0.243444056 0"
         in="shadowBlurOuter1"
         id="feColorMatrix4" />
    </filter>
    <rect
       id="a"
       x="0"
       y="0"
       width="642"
       height="427"
       rx="15" />
  </defs>
  <g
     fill="none"
     fill-rule="evenodd"
     id="g10">
    <rect
       fill="#2d2e40"
       opacity="0.08"
       transform="matrix(1,0,0,-1,0,890)"
       x="145"
       y="144"
       width="600"
       height="602"
       rx="300"
       id="rect4" />
    <rect
       stroke="#2d2e40"
       opacity="0.5"
       transform="matrix(1,0,0,-1,0,882)"
       x="105.5"
       y="100.5"
       width="679"
       height="681"
       rx="339.5"
       id="rect5" />
    <rect
       stroke="#2d2e40"
       opacity="0.25"
       transform="matrix(1,0,0,-1,0,882)"
       x="5.5"
       y="0.5"
       width="879"
       height="881"
       rx="439.5"
       id="rect6" />
    <g
       transform="translate(0,242)"
       id="g9">
      <mask
         id="d"
         fill="#ffffff">
        <use
           xlink:href="#a"
           id="use6" />
      </mask>
      <g
         fill-rule="nonzero"
         id="g8">
        <use
           fill="#000000"
           filter="url(#b)"
           xlink:href="#a"
           id="use7" />
        <use
           fill="url(#c)"
           xlink:href="#a"
           id="use8"
           style="fill:url(#c)" />
      </g>
      <path
         d="m 3,125 h 636 a 3,3 0 0 1 3,3 v 296 a 3,3 0 0 1 -3,3 H 3 A 3,3 0 0 1 0,424 V 128 a 3,3 0 0 1 3,-3 z"
         fill="#2d2e40"
         fill-rule="nonzero"
         mask="url(#d)"
         id="path8" />
      <rect
         fill="#ffffff"
         fill-rule="nonzero"
         mask="url(#d)"
         x="90.523003"
         y="47.709"
         width="135.785"
         height="137.16499"
         rx="3"
         id="rect8" />
      <ellipse
         fill="#2d2e40"
         mask="url(#d)"
         cx="158.416"
         cy="116.888"
         rx="39.306"
         ry="39.360001"
         id="ellipse8" />
      <rect
         fill="#ffffff"
         fill-rule="nonzero"
         mask="url(#d)"
         x="248.939"
         y="47.709"
         width="302.53799"
         height="325.617"
         rx="3"
         id="rect9" />
    </g>
    <path
       d="m 209,284 c 47.125,-73.367 81.977,-113.013 104.557,-118.938 33.87,-8.886 23.765,83.14 72.535,72.473 48.77,-10.666 54.716,-103.974 91.603,-108.37 36.887,-4.397 56.402,80.946 72.515,88.81 10.742,5.241 24.005,-6.094 39.79,-34.007"
       stroke="url(#e)"
       stroke-width="8"
       stroke-linecap="round"
       transform="translate(0,242)"
       id="path9"
       style="stroke:url(#e)" />
  </g>
</svg>
