<?xml version="1.0" encoding="UTF-8" standalone="no"?>
<svg
   width="472"
   height="499"
   version="1.1"
   id="svg26"
   sodipodi:docname="illustration-phones.svg"
   inkscape:version="1.3.2 (091e20e, 2023-11-25, custom)"
   xmlns:inkscape="http://www.inkscape.org/namespaces/inkscape"
   xmlns:sodipodi="http://sodipodi.sourceforge.net/DTD/sodipodi-0.dtd"
   xmlns:xlink="http://www.w3.org/1999/xlink"
   xmlns="http://www.w3.org/2000/svg"
   xmlns:svg="http://www.w3.org/2000/svg">
  <sodipodi:namedview
     id="namedview26"
     pagecolor="#ffffff"
     bordercolor="#000000"
     borderopacity="0.25"
     inkscape:showpageshadow="2"
     inkscape:pageopacity="0.0"
     inkscape:pagecheckerboard="0"
     inkscape:deskcolor="#d1d1d1"
     inkscape:zoom="1.4041451"
     inkscape:cx="249.26199"
     inkscape:cy="220.41882"
     inkscape:window-width="1920"
     inkscape:window-height="1009"
     inkscape:window-x="-8"
     inkscape:window-y="-8"
     inkscape:window-maximized="1"
     inkscape:current-layer="g26" />
  <defs
     id="defs10">
    <filter
       x="-0.2199857"
       y="-0.11025991"
       width="1.4399714"
       height="1.2664615"
       filterUnits="objectBoundingBox"
       id="b">
      <feOffset
         dy="20"
         in="SourceAlpha"
         result="shadowOffsetOuter1"
         id="feOffset1" />
      <feGaussianBlur
         stdDeviation="20"
         in="shadowOffsetOuter1"
         result="shadowBlurOuter1"
         id="feGaussianBlur1" />
      <feColorMatrix
         values="0 0 0 0 0.421821759 0 0 0 0 0.554338424 0 0 0 0 0.893710371 0 0 0 0.243444056 0"
         in="shadowBlurOuter1"
         id="feColorMatrix1" />
    </filter>
    <filter
       x="-0.14401526"
       y="-0.41067058"
       width="1.2880305"
       height="1.9924539"
       filterUnits="objectBoundingBox"
       id="e">
      <feOffset
         dy="10"
         in="SourceAlpha"
         result="shadowOffsetOuter1"
         id="feOffset2" />
      <feGaussianBlur
         stdDeviation="10"
         in="shadowOffsetOuter1"
         result="shadowBlurOuter1"
         id="feGaussianBlur2" />
      <feColorMatrix
         values="0 0 0 0 0.421821759 0 0 0 0 0.554338424 0 0 0 0 0.893710371 0 0 0 0.243444056 0"
         in="shadowBlurOuter1"
         id="feColorMatrix2" />
    </filter>
    <filter
       x="-0.14401526"
       y="-0.41067058"
       width="1.2880305"
       height="1.9924539"
       filterUnits="objectBoundingBox"
       id="g">
      <feOffset
         dy="10"
         in="SourceAlpha"
         result="shadowOffsetOuter1"
         id="feOffset3" />
      <feGaussianBlur
         stdDeviation="10"
         in="shadowOffsetOuter1"
         result="shadowBlurOuter1"
         id="feGaussianBlur3" />
      <feColorMatrix
         values="0 0 0 0 0.421821759 0 0 0 0 0.554338424 0 0 0 0 0.893710371 0 0 0 0.243444056 0"
         in="shadowBlurOuter1"
         id="feColorMatrix3" />
    </filter>
    <filter
       x="-0.14401526"
       y="-0.41067058"
       width="1.2880305"
       height="1.9924539"
       filterUnits="objectBoundingBox"
       id="i">
      <feOffset
         dy="10"
         in="SourceAlpha"
         result="shadowOffsetOuter1"
         id="feOffset4" />
      <feGaussianBlur
         stdDeviation="10"
         in="shadowOffsetOuter1"
         result="shadowBlurOuter1"
         id="feGaussianBlur4" />
      <feColorMatrix
         values="0 0 0 0 0.421821759 0 0 0 0 0.554338424 0 0 0 0 0.893710371 0 0 0 0.243444056 0"
         in="shadowBlurOuter1"
         id="feColorMatrix4" />
    </filter>
    <filter
       x="-0.14401526"
       y="-0.41067058"
       width="1.2880305"
       height="1.9924539"
       filterUnits="objectBoundingBox"
       id="k">
      <feOffset
         dy="10"
         in="SourceAlpha"
         result="shadowOffsetOuter1"
         id="feOffset5" />
      <feGaussianBlur
         stdDeviation="10"
         in="shadowOffsetOuter1"
         result="shadowBlurOuter1"
         id="feGaussianBlur5" />
      <feColorMatrix
         values="0 0 0 0 0.421821759 0 0 0 0 0.554338424 0 0 0 0 0.893710371 0 0 0 0.243444056 0"
         in="shadowBlurOuter1"
         id="feColorMatrix5" />
    </filter>
    <filter
       x="-0.14401526"
       y="-0.41067058"
       width="1.2880305"
       height="1.9924539"
       filterUnits="objectBoundingBox"
       id="m">
      <feOffset
         dy="10"
         in="SourceAlpha"
         result="shadowOffsetOuter1"
         id="feOffset6" />
      <feGaussianBlur
         stdDeviation="10"
         in="shadowOffsetOuter1"
         result="shadowBlurOuter1"
         id="feGaussianBlur6" />
      <feColorMatrix
         values="0 0 0 0 0.421821759 0 0 0 0 0.554338424 0 0 0 0 0.893710371 0 0 0 0.243444056 0"
         in="shadowBlurOuter1"
         id="feColorMatrix6" />
    </filter>
    <filter
       x="-0.2199857"
       y="-0.11025991"
       width="1.4399714"
       height="1.2664615"
       filterUnits="objectBoundingBox"
       id="o">
      <feOffset
         dy="20"
         in="SourceAlpha"
         result="shadowOffsetOuter1"
         id="feOffset7" />
      <feGaussianBlur
         stdDeviation="20"
         in="shadowOffsetOuter1"
         result="shadowBlurOuter1"
         id="feGaussianBlur7" />
      <feColorMatrix
         values="0 0 0 0 0.421821759 0 0 0 0 0.554338424 0 0 0 0 0.893710371 0 0 0 0.243444056 0"
         in="shadowBlurOuter1"
         id="feColorMatrix7" />
    </filter>
    <rect
       id="f"
       x="0"
       y="0"
       width="166.649"
       height="58.441002"
       rx="4" />
    <rect
       id="h"
       x="0"
       y="72.397003"
       width="166.649"
       height="58.441002"
       rx="4" />
    <rect
       id="j"
       x="0"
       y="144.79401"
       width="166.649"
       height="58.441002"
       rx="4" />
    <rect
       id="l"
       x="0"
       y="217.192"
       width="166.649"
       height="58.441002"
       rx="4" />
    <rect
       id="n"
       x="0"
       y="289.58899"
       width="166.649"
       height="58.441002"
       rx="4" />
    <linearGradient
       x1="0.38371"
       y1="0"
       x2="0.61629003"
       y2="1"
       id="a">
      <stop
         stop-color="#FF8F71"
         offset="0%"
         id="stop7" />
      <stop
         stop-color="#FF3E55"
         offset="100%"
         id="stop8" />
    </linearGradient>
    <linearGradient
       x1="9.3311663"
       y1="67.753777"
       x2="127.11226"
       y2="85.39267"
       id="d"
       gradientTransform="scale(1.6075161,0.62207774)"
       gradientUnits="userSpaceOnUse">
      <stop
         stop-color="#FF8F71"
         offset="0%"
         id="stop9" />
      <stop
         stop-color="#FF3E55"
         offset="100%"
         id="stop10" />
    </linearGradient>
    <path
       d="m 204.442,401.894 c 0,10.587 -7.815,19.708 -18.398,19.708 H 35.126 c -10.584,0 -19.786,-9.121 -19.786,-19.708 V 30.059 c 0,-10.587 9.202,-18.327 19.786,-18.327 h 17.447 c 3.689,0 5.051,-0.422 5.275,4.255 0.116,2.43 1.007,4.318 2.435,5.881 1.426,1.534 3.39,2.794 5.646,3.501 1.531,0.48 3.236,0.914 4.861,0.914 h 79.751 c 1.626,0 3.33,-0.534 4.861,-1.013 2.258,-0.707 4.22,-1.887 5.647,-3.392 1.428,-1.535 2.319,-3.344 2.434,-5.773 0.223,-4.676 1.587,-4.373 5.276,-4.373 h 17.285 c 10.583,0 18.398,7.74 18.398,18.327 z M 98.847,13.55 h 23.637 c 1.004,0 1.819,0.622 1.819,1.515 0,0.893 -0.815,1.516 -1.819,1.516 H 98.847 c -1.005,0 -1.818,-0.623 -1.818,-1.516 0,-0.893 0.813,-1.515 1.818,-1.515 z m 36.063,0.522 a 2.653,2.653 0 1 1 -5.306,0 2.653,2.653 0 0 1 5.306,0 z M 215.958,99.04 V 31.254 C 215.958,14.11 202.065,0.212 184.926,0.212 H 34.148 c -17.677,0 -32.142,14.47 -32.142,32.155 v 24.839 a 1.819,1.819 0 0 0 -1.819,1.818 v 12.733 a 1.82,1.82 0 0 0 1.819,1.82 v 15.157 a 1.82,1.82 0 0 0 -1.819,1.82 v 27.284 a 1.82,1.82 0 0 0 1.819,1.818 v 9.095 a 1.82,1.82 0 0 0 -1.819,1.818 v 27.285 a 1.82,1.82 0 0 0 1.819,1.82 V 403.29 c 0,17.74 14.509,32.257 32.243,32.257 h 150.677 c 17.067,0 31.032,-13.97 31.032,-31.043 v -255.14 h 0.605 a 1.819,1.819 0 0 0 1.82,-1.819 V 100.86 c 0,-1.005 -0.814,-1.82 -1.82,-1.82 z"
       id="c" />
    <path
       d="m 204.442,401.894 c 0,10.587 -7.815,19.708 -18.398,19.708 H 35.126 c -10.584,0 -19.786,-9.121 -19.786,-19.708 V 30.059 c 0,-10.587 9.202,-18.327 19.786,-18.327 h 17.447 c 3.689,0 5.051,-0.422 5.275,4.255 0.116,2.43 1.007,4.318 2.435,5.881 1.426,1.534 3.39,2.794 5.646,3.501 1.531,0.48 3.236,0.914 4.861,0.914 h 79.751 c 1.626,0 3.33,-0.534 4.861,-1.013 2.258,-0.707 4.22,-1.887 5.647,-3.392 1.428,-1.535 2.319,-3.344 2.434,-5.773 0.223,-4.676 1.587,-4.373 5.276,-4.373 h 17.285 c 10.583,0 18.398,7.74 18.398,18.327 z M 98.847,13.55 h 23.637 c 1.004,0 1.819,0.622 1.819,1.515 0,0.893 -0.815,1.516 -1.819,1.516 H 98.847 c -1.005,0 -1.818,-0.623 -1.818,-1.516 0,-0.893 0.813,-1.515 1.818,-1.515 z m 36.063,0.522 a 2.653,2.653 0 1 1 -5.306,0 2.653,2.653 0 0 1 5.306,0 z M 215.958,99.04 V 31.254 C 215.958,14.11 202.065,0.212 184.926,0.212 H 34.148 c -17.677,0 -32.142,14.47 -32.142,32.155 v 24.839 a 1.819,1.819 0 0 0 -1.819,1.818 v 12.733 a 1.82,1.82 0 0 0 1.819,1.82 v 15.157 a 1.82,1.82 0 0 0 -1.819,1.82 v 27.284 a 1.82,1.82 0 0 0 1.819,1.818 v 9.095 a 1.82,1.82 0 0 0 -1.819,1.818 v 27.285 a 1.82,1.82 0 0 0 1.819,1.82 V 403.29 c 0,17.74 14.509,32.257 32.243,32.257 h 150.677 c 17.067,0 31.032,-13.97 31.032,-31.043 v -255.14 h 0.605 a 1.819,1.819 0 0 0 1.82,-1.819 V 100.86 c 0,-1.005 -0.814,-1.82 -1.82,-1.82 z"
       id="p" />
    <linearGradient
       inkscape:collect="always"
       xlink:href="#a"
       id="linearGradient28"
       x1="124.23653"
       y1="3.4722812"
       x2="192.55807"
       y2="297.22729"
       gradientTransform="scale(0.69445626,1.4399755)"
       gradientUnits="userSpaceOnUse" />
    <linearGradient
       inkscape:collect="always"
       xlink:href="#a"
       id="linearGradient29"
       x1="124.23653"
       y1="3.4722812"
       x2="192.55807"
       y2="297.22729"
       gradientTransform="scale(0.69445626,1.4399755)"
       gradientUnits="userSpaceOnUse" />
  </defs>
  <g
     fill="none"
     fill-rule="evenodd"
     id="g26"
     transform="translate(47.812998,47.787999)">
    <g
       id="g11"
       transform="translate(-48,-48)">
      <rect
         fill="url(#a)"
         x="8"
         y="5"
         width="204"
         height="423"
         rx="22"
         id="rect10"
         style="fill:url(#linearGradient28)" />
      <path
         d="m 65,227.56 v -25.278 h 9.316 c 1.734,0 3.232,0.267 4.496,0.8 1.264,0.535 2.239,1.294 2.925,2.28 0.686,0.984 1.03,2.141 1.03,3.47 0,1.21 -0.266,2.273 -0.795,3.187 a 5.63,5.63 0 0 1 -2.24,2.154 c 1.3,0.498 2.312,1.287 3.034,2.367 0.722,1.08 1.083,2.356 1.083,3.828 0,1.471 -0.385,2.74 -1.155,3.809 -0.77,1.068 -1.854,1.899 -3.25,2.492 -1.396,0.593 -3.045,0.89 -4.947,0.89 H 65 Z m 5.2,-20.9 v 5.804 h 3.539 c 1.18,0 2.088,-0.243 2.726,-0.73 0.638,-0.487 0.957,-1.205 0.957,-2.154 0,-0.95 -0.32,-1.673 -0.957,-2.172 -0.638,-0.498 -1.547,-0.747 -2.726,-0.747 h -3.54 z m 0,16.52 h 4.044 c 1.348,0 2.39,-0.285 3.124,-0.854 0.734,-0.57 1.101,-1.389 1.101,-2.457 0,-1.068 -0.367,-1.887 -1.101,-2.456 -0.735,-0.57 -1.776,-0.855 -3.124,-0.855 H 70.2 Z m 16.863,4.38 V 201 h 5.056 v 26.56 z m 18.272,0.533 c -1.42,0 -2.732,-0.249 -3.936,-0.747 a 9.577,9.577 0 0 1 -3.142,-2.083 9.438,9.438 0 0 1 -2.076,-3.151 c -0.494,-1.21 -0.74,-2.528 -0.74,-3.952 0,-1.424 0.252,-2.735 0.758,-3.934 a 9.78,9.78 0 0 1 2.112,-3.15 9.594,9.594 0 0 1 3.178,-2.101 c 1.216,-0.499 2.546,-0.748 3.99,-0.748 1.42,0 2.733,0.25 3.936,0.748 a 9.577,9.577 0 0 1 3.142,2.083 9.482,9.482 0 0 1 2.076,3.133 c 0.494,1.198 0.74,2.51 0.74,3.934 0,1.424 -0.252,2.741 -0.758,3.951 a 9.73,9.73 0 0 1 -2.112,3.169 9.594,9.594 0 0 1 -3.178,2.1 c -1.216,0.499 -2.546,0.748 -3.99,0.748 z m 0.072,-4.486 c 0.915,0 1.733,-0.237 2.456,-0.712 0.722,-0.474 1.293,-1.121 1.715,-1.94 0.421,-0.819 0.632,-1.75 0.632,-2.795 0,-1.044 -0.211,-1.976 -0.632,-2.795 -0.422,-0.818 -0.993,-1.465 -1.715,-1.94 -0.723,-0.475 -1.541,-0.712 -2.456,-0.712 -0.915,0 -1.733,0.237 -2.455,0.712 -0.723,0.475 -1.294,1.122 -1.716,1.94 -0.42,0.82 -0.632,1.75 -0.632,2.795 0,1.045 0.211,1.976 0.632,2.795 0.422,0.819 0.993,1.466 1.716,1.94 0.722,0.475 1.54,0.712 2.455,0.712 z m 21.124,3.418 a 8.081,8.081 0 0 1 -3.376,-0.712 8.295,8.295 0 0 1 -2.726,-1.976 9.246,9.246 0 0 1 -1.806,-2.955 c -0.433,-1.127 -0.65,-2.344 -0.65,-3.649 0,-1.353 0.223,-2.605 0.668,-3.756 a 9.131,9.131 0 0 1 1.878,-3.008 8.894,8.894 0 0 1 2.817,-2.012 c 1.07,-0.486 2.232,-0.73 3.484,-0.73 1.228,0 2.335,0.244 3.322,0.73 a 6.447,6.447 0 0 1 2.456,2.118 l 0.108,-2.314 h 4.658 v 16.555 c 0,1.448 -0.234,2.765 -0.704,3.952 a 8.774,8.774 0 0 1 -2.004,3.062 8.961,8.961 0 0 1 -3.087,1.976 c -1.192,0.463 -2.51,0.694 -3.954,0.694 -1.42,0 -2.697,-0.22 -3.828,-0.659 a 9.174,9.174 0 0 1 -2.961,-1.833 8.656,8.656 0 0 1 -1.986,-2.742 l 4.839,-1.174 a 4.737,4.737 0 0 0 1.679,1.62 c 0.686,0.391 1.462,0.587 2.329,0.587 0.939,0 1.751,-0.208 2.437,-0.623 a 4.283,4.283 0 0 0 1.607,-1.745 c 0.385,-0.747 0.578,-1.62 0.578,-2.616 v -1.531 a 6.795,6.795 0 0 1 -2.474,2.011 c -0.999,0.487 -2.1,0.73 -3.304,0.73 z m 1.228,-4.415 c 0.89,0 1.68,-0.22 2.365,-0.658 a 4.816,4.816 0 0 0 1.643,-1.78 c 0.41,-0.748 0.614,-1.596 0.614,-2.546 0,-0.95 -0.204,-1.798 -0.614,-2.545 a 4.816,4.816 0 0 0 -1.643,-1.78 c -0.686,-0.44 -1.474,-0.66 -2.365,-0.66 -0.89,0 -1.679,0.22 -2.365,0.66 a 4.816,4.816 0 0 0 -1.643,1.78 c -0.41,0.747 -0.614,1.596 -0.614,2.545 0,0.95 0.205,1.798 0.614,2.546 0.41,0.747 0.957,1.34 1.643,1.78 0.686,0.439 1.474,0.658 2.365,0.658 z m 13.65,4.95 v -18.8 h 4.658 l 0.18,2.848 c 0.482,-0.996 1.132,-1.762 1.95,-2.296 0.819,-0.534 1.782,-0.801 2.89,-0.801 0.336,0 0.673,0.03 1.01,0.089 0.337,0.06 0.638,0.137 0.903,0.231 l -0.542,4.914 a 3.86,3.86 0 0 0 -0.812,-0.196 6.647,6.647 0 0 0 -0.849,-0.054 c -1.396,0 -2.467,0.422 -3.213,1.264 -0.747,0.843 -1.12,2.035 -1.12,3.578 v 9.221 h -5.055 z"
         fill="#ffffff"
         fill-rule="nonzero"
         id="path10" />
      <use
         fill="#000000"
         filter="url(#b)"
         xlink:href="#c"
         id="use10" />
      <use
         fill="#1d1d25"
         xlink:href="#c"
         id="use11" />
      <path
         d="M 122.484,13.55 H 98.847 c -1.005,0 -1.819,0.624 -1.819,1.517 0,0.892 0.814,1.515 1.82,1.515 h 23.636 c 1.005,0 1.82,-0.623 1.82,-1.515 0,-0.893 -0.815,-1.517 -1.82,-1.517 m 9.774,-2.13 a 2.6530002,2.6530002 0 1 0 0.002,5.306 2.6530002,2.6530002 0 0 0 -0.002,-5.306"
         fill="#000000"
         id="path11" />
    </g>
    <g
       transform="translate(205,15)"
       id="g25">
      <rect
         fill="url(#a)"
         x="8"
         y="5"
         width="204"
         height="423"
         rx="22"
         id="rect11"
         style="fill:url(#linearGradient29)" />
      <rect
         fill="#ffffff"
         x="15"
         y="11"
         width="189.33501"
         height="414.32101"
         rx="22"
         id="rect12" />
      <rect
         fill="url(#d)"
         x="15"
         y="11"
         width="189.33501"
         height="73.268997"
         rx="22"
         id="rect13"
         style="fill:url(#d)" />
      <g
         transform="translate(26.343,57.23)"
         id="g14">
        <use
           fill="#000000"
           filter="url(#e)"
           xlink:href="#f"
           id="use13" />
        <use
           fill="#ffffff"
           xlink:href="#f"
           id="use14" />
      </g>
      <g
         transform="translate(26.343,57.23)"
         id="g16">
        <use
           fill="#000000"
           filter="url(#g)"
           xlink:href="#h"
           id="use15" />
        <use
           fill="#ffffff"
           xlink:href="#h"
           id="use16" />
      </g>
      <g
         transform="translate(26.343,57.23)"
         id="g18">
        <use
           fill="#000000"
           filter="url(#i)"
           xlink:href="#j"
           id="use17" />
        <use
           fill="#ffffff"
           xlink:href="#j"
           id="use18" />
      </g>
      <g
         transform="translate(26.343,57.23)"
         id="g20">
        <use
           fill="#000000"
           filter="url(#k)"
           xlink:href="#l"
           id="use19" />
        <use
           fill="#ffffff"
           xlink:href="#l"
           id="use20" />
      </g>
      <g
         transform="translate(26.343,57.23)"
         id="g22">
        <use
           fill="#000000"
           filter="url(#m)"
           xlink:href="#n"
           id="use21" />
        <use
           fill="#ffffff"
           xlink:href="#n"
           id="use22" />
      </g>
      <path
         d="m 65,227.56 v -25.278 h 9.316 c 1.734,0 3.232,0.267 4.496,0.8 1.264,0.535 2.239,1.294 2.925,2.28 0.686,0.984 1.03,2.141 1.03,3.47 0,1.21 -0.266,2.273 -0.795,3.187 a 5.63,5.63 0 0 1 -2.24,2.154 c 1.3,0.498 2.312,1.287 3.034,2.367 0.722,1.08 1.083,2.356 1.083,3.828 0,1.471 -0.385,2.74 -1.155,3.809 -0.77,1.068 -1.854,1.899 -3.25,2.492 -1.396,0.593 -3.045,0.89 -4.947,0.89 H 65 Z m 5.2,-20.9 v 5.804 h 3.539 c 1.18,0 2.088,-0.243 2.726,-0.73 0.638,-0.487 0.957,-1.205 0.957,-2.154 0,-0.95 -0.32,-1.673 -0.957,-2.172 -0.638,-0.498 -1.547,-0.747 -2.726,-0.747 h -3.54 z m 0,16.52 h 4.044 c 1.348,0 2.39,-0.285 3.124,-0.854 0.734,-0.57 1.101,-1.389 1.101,-2.457 0,-1.068 -0.367,-1.887 -1.101,-2.456 -0.735,-0.57 -1.776,-0.855 -3.124,-0.855 H 70.2 Z m 16.863,4.38 V 201 h 5.056 v 26.56 z m 18.272,0.533 c -1.42,0 -2.732,-0.249 -3.936,-0.747 a 9.577,9.577 0 0 1 -3.142,-2.083 9.438,9.438 0 0 1 -2.076,-3.151 c -0.494,-1.21 -0.74,-2.528 -0.74,-3.952 0,-1.424 0.252,-2.735 0.758,-3.934 a 9.78,9.78 0 0 1 2.112,-3.15 9.594,9.594 0 0 1 3.178,-2.101 c 1.216,-0.499 2.546,-0.748 3.99,-0.748 1.42,0 2.733,0.25 3.936,0.748 a 9.577,9.577 0 0 1 3.142,2.083 9.482,9.482 0 0 1 2.076,3.133 c 0.494,1.198 0.74,2.51 0.74,3.934 0,1.424 -0.252,2.741 -0.758,3.951 a 9.73,9.73 0 0 1 -2.112,3.169 9.594,9.594 0 0 1 -3.178,2.1 c -1.216,0.499 -2.546,0.748 -3.99,0.748 z m 0.072,-4.486 c 0.915,0 1.733,-0.237 2.456,-0.712 0.722,-0.474 1.293,-1.121 1.715,-1.94 0.421,-0.819 0.632,-1.75 0.632,-2.795 0,-1.044 -0.211,-1.976 -0.632,-2.795 -0.422,-0.818 -0.993,-1.465 -1.715,-1.94 -0.723,-0.475 -1.541,-0.712 -2.456,-0.712 -0.915,0 -1.733,0.237 -2.455,0.712 -0.723,0.475 -1.294,1.122 -1.716,1.94 -0.42,0.82 -0.632,1.75 -0.632,2.795 0,1.045 0.211,1.976 0.632,2.795 0.422,0.819 0.993,1.466 1.716,1.94 0.722,0.475 1.54,0.712 2.455,0.712 z m 21.124,3.418 a 8.081,8.081 0 0 1 -3.376,-0.712 8.295,8.295 0 0 1 -2.726,-1.976 9.246,9.246 0 0 1 -1.806,-2.955 c -0.433,-1.127 -0.65,-2.344 -0.65,-3.649 0,-1.353 0.223,-2.605 0.668,-3.756 a 9.131,9.131 0 0 1 1.878,-3.008 8.894,8.894 0 0 1 2.817,-2.012 c 1.07,-0.486 2.232,-0.73 3.484,-0.73 1.228,0 2.335,0.244 3.322,0.73 a 6.447,6.447 0 0 1 2.456,2.118 l 0.108,-2.314 h 4.658 v 16.555 c 0,1.448 -0.234,2.765 -0.704,3.952 a 8.774,8.774 0 0 1 -2.004,3.062 8.961,8.961 0 0 1 -3.087,1.976 c -1.192,0.463 -2.51,0.694 -3.954,0.694 -1.42,0 -2.697,-0.22 -3.828,-0.659 a 9.174,9.174 0 0 1 -2.961,-1.833 8.656,8.656 0 0 1 -1.986,-2.742 l 4.839,-1.174 a 4.737,4.737 0 0 0 1.679,1.62 c 0.686,0.391 1.462,0.587 2.329,0.587 0.939,0 1.751,-0.208 2.437,-0.623 a 4.283,4.283 0 0 0 1.607,-1.745 c 0.385,-0.747 0.578,-1.62 0.578,-2.616 v -1.531 a 6.795,6.795 0 0 1 -2.474,2.011 c -0.999,0.487 -2.1,0.73 -3.304,0.73 z m 1.228,-4.415 c 0.89,0 1.68,-0.22 2.365,-0.658 a 4.816,4.816 0 0 0 1.643,-1.78 c 0.41,-0.748 0.614,-1.596 0.614,-2.546 0,-0.95 -0.204,-1.798 -0.614,-2.545 a 4.816,4.816 0 0 0 -1.643,-1.78 c -0.686,-0.44 -1.474,-0.66 -2.365,-0.66 -0.89,0 -1.679,0.22 -2.365,0.66 a 4.816,4.816 0 0 0 -1.643,1.78 c -0.41,0.747 -0.614,1.596 -0.614,2.545 0,0.95 0.205,1.798 0.614,2.546 0.41,0.747 0.957,1.34 1.643,1.78 0.686,0.439 1.474,0.658 2.365,0.658 z m 13.65,4.95 v -18.8 h 4.658 l 0.18,2.848 c 0.482,-0.996 1.132,-1.762 1.95,-2.296 0.819,-0.534 1.782,-0.801 2.89,-0.801 0.336,0 0.673,0.03 1.01,0.089 0.337,0.06 0.638,0.137 0.903,0.231 l -0.542,4.914 a 3.86,3.86 0 0 0 -0.812,-0.196 6.647,6.647 0 0 0 -0.849,-0.054 c -1.396,0 -2.467,0.422 -3.213,1.264 -0.747,0.843 -1.12,2.035 -1.12,3.578 v 9.221 h -5.055 z"
         fill="#ffffff"
         fill-rule="nonzero"
         id="path22" />
      <g
         id="g24">
        <use
           fill="#000000"
           filter="url(#o)"
           xlink:href="#p"
           id="use23" />
        <use
           fill="#1d1d25"
           xlink:href="#p"
           id="use24" />
        <path
           d="M 122.484,13.55 H 98.847 c -1.005,0 -1.819,0.624 -1.819,1.517 0,0.892 0.814,1.515 1.82,1.515 h 23.636 c 1.005,0 1.82,-0.623 1.82,-1.515 0,-0.893 -0.815,-1.517 -1.82,-1.517 m 9.774,-2.13 a 2.6530002,2.6530002 0 1 0 0.002,5.306 2.6530002,2.6530002 0 0 0 -0.002,-5.306"
           fill="#000000"
           id="path24" />
      </g>
    </g>
  </g>
</svg>
